<svg xmlns="http://www.w3.org/2000/svg" viewBox="0 0 1200 600" preserveAspectRatio="xMidYMax slice" aria-hidden="true">
  <defs>
    <radialGradient id="topo-fade" cx="50%" cy="68%" r="62%">
      <stop offset="0%" stop-color="white" stop-opacity="1"/>
      <stop offset="55%" stop-color="white" stop-opacity="0.8"/>
      <stop offset="100%" stop-color="white" stop-opacity="0"/>
    </radialGradient>
    <linearGradient id="topo-sky" x1="0" x2="0" y1="0" y2="1">
      <stop offset="0%" stop-color="white" stop-opacity="0"/>
      <stop offset="22%" stop-color="white" stop-opacity="0.35"/>
      <stop offset="40%" stop-color="white" stop-opacity="1"/>
      <stop offset="100%" stop-color="white" stop-opacity="1"/>
    </linearGradient>
    <mask id="topo-mask">
      <rect width="1200" height="600" fill="url(#topo-fade)"/>
      <rect width="1200" height="190" fill="url(#topo-sky)" style="mix-blend-mode: multiply;"/>
    </mask>
  </defs>
  <g opacity="0.04" mask="url(#topo-mask)">
    <path d="M572.4,164 L-240.0,576" stroke="#0EA874" stroke-opacity="0.9" stroke-width="0.40" stroke-linecap="round" fill="none"/>
    <path d="M575.3,164 L-151.6,576" stroke="#0EA874" stroke-opacity="0.55" stroke-width="0.40" stroke-linecap="round" fill="none"/>
    <path d="M578.2,164 L-63.2,576" stroke="#0EA874" stroke-opacity="0.55" stroke-width="0.40" stroke-linecap="round" fill="none"/>
    <path d="M581.1,164 L25.3,576" stroke="#0EA874" stroke-opacity="0.55" stroke-width="0.40" stroke-linecap="round" fill="none"/>
    <path d="M584.0,164 L113.7,576" stroke="#0EA874" stroke-opacity="0.55" stroke-width="0.40" stroke-linecap="round" fill="none"/>
    <path d="M586.9,164 L202.1,576" stroke="#0EA874" stroke-opacity="0.9" stroke-width="0.40" stroke-linecap="round" fill="none"/>
    <path d="M589.8,164 L290.5,576" stroke="#0EA874" stroke-opacity="0.55" stroke-width="0.40" stroke-linecap="round" fill="none"/>
    <path d="M592.7,164 L378.9,576" stroke="#0EA874" stroke-opacity="0.55" stroke-width="0.40" stroke-linecap="round" fill="none"/>
    <path d="M595.6,164 L467.4,576" stroke="#0EA874" stroke-opacity="0.55" stroke-width="0.40" stroke-linecap="round" fill="none"/>
    <path d="M598.5,164 L555.8,576" stroke="#0EA874" stroke-opacity="0.55" stroke-width="0.40" stroke-linecap="round" fill="none"/>
    <path d="M601.5,164 L644.2,576" stroke="#0EA874" stroke-opacity="0.9" stroke-width="0.40" stroke-linecap="round" fill="none"/>
    <path d="M604.4,164 L732.6,576" stroke="#0EA874" stroke-opacity="0.55" stroke-width="0.40" stroke-linecap="round" fill="none"/>
    <path d="M607.3,164 L821.1,576" stroke="#0EA874" stroke-opacity="0.55" stroke-width="0.40" stroke-linecap="round" fill="none"/>
    <path d="M610.2,164 L909.5,576" stroke="#0EA874" stroke-opacity="0.55" stroke-width="0.40" stroke-linecap="round" fill="none"/>
    <path d="M613.1,164 L997.9,576" stroke="#0EA874" stroke-opacity="0.55" stroke-width="0.40" stroke-linecap="round" fill="none"/>
    <path d="M616.0,164 L1086.3,576" stroke="#0EA874" stroke-opacity="0.9" stroke-width="0.40" stroke-linecap="round" fill="none"/>
    <path d="M618.9,164 L1174.7,576" stroke="#0EA874" stroke-opacity="0.55" stroke-width="0.40" stroke-linecap="round" fill="none"/>
    <path d="M621.8,164 L1263.2,576" stroke="#0EA874" stroke-opacity="0.55" stroke-width="0.40" stroke-linecap="round" fill="none"/>
    <path d="M624.7,164 L1351.6,576" stroke="#0EA874" stroke-opacity="0.55" stroke-width="0.40" stroke-linecap="round" fill="none"/>
    <path d="M627.6,164 L1440.0,576" stroke="#0EA874" stroke-opacity="0.55" stroke-width="0.40" stroke-linecap="round" fill="none"/>
    <path d="M0.0,150.91 L10.0,150.94 L20.0,150.94 L30.0,150.94 L40.0,150.96 L50.0,151.01 L60.0,151.11 L70.0,151.27 L80.0,151.51 L90.0,151.81 L100.0,152.19 L110.0,152.62 L120.0,153.10 L130.0,153.61 L140.0,154.11 L150.0,154.60 L160.0,155.04 L170.0,155.40 L180.0,155.67 L190.0,155.81 L200.0,155.81 L210.0,155.65 L220.0,155.33 L230.0,154.85 L240.0,154.21 L250.0,153.43 L260.0,152.52 L270.0,151.52 L280.0,150.44 L290.0,149.32 L300.0,148.20 L310.0,147.12 L320.0,146.10 L330.0,145.18 L340.0,144.40 L350.0,143.76 L360.0,143.30 L370.0,143.01 L380.0,142.91 L390.0,143.00 L400.0,143.25 L410.0,143.66 L420.0,144.21 L430.0,144.86 L440.0,145.59 L450.0,146.37 L460.0,147.17 L470.0,147.95 L480.0,148.70 L490.0,149.38 L500.0,149.99 L510.0,150.50 L520.0,150.91 L530.0,151.22 L540.0,151.44 L550.0,151.58 L560.0,151.64 L570.0,151.65 L580.0,151.63 L590.0,151.61 L600.0,151.59 L610.0,151.60 L620.0,151.65 L630.0,151.77 L640.0,151.94 L650.0,152.19 L660.0,152.50 L670.0,152.86 L680.0,153.26 L690.0,153.68 L700.0,154.11 L710.0,154.51 L720.0,154.85 L730.0,155.12 L740.0,155.29 L750.0,155.34 L760.0,155.25 L770.0,155.01 L780.0,154.62 L790.0,154.07 L800.0,153.38 L810.0,152.55 L820.0,151.61 L830.0,150.59 L840.0,149.51 L850.0,148.41 L860.0,147.33 L870.0,146.29 L880.0,145.34 L890.0,144.50 L900.0,143.80 L910.0,143.26 L920.0,142.90 L930.0,142.73 L940.0,142.74 L950.0,142.94 L960.0,143.31 L970.0,143.83 L980.0,144.48 L990.0,145.23 L1000.0,146.05 L1010.0,146.91 L1020.0,147.77 L1030.0,148.61 L1040.0,149.41 L1050.0,150.12 L1060.0,150.75 L1070.0,151.28 L1080.0,151.69 L1090.0,152.00 L1100.0,152.20 L1110.0,152.32 L1120.0,152.35 L1130.0,152.33 L1140.0,152.27 L1150.0,152.20 L1160.0,152.13 L1170.0,152.09 L1180.0,152.09 L1190.0,152.14 L1200.0,152.26" stroke="#0EA874" stroke-opacity="0.9" stroke-width="0.40" stroke-linecap="round" fill="none"/>
    <path d="M0.0,156.32 L10.0,156.23 L20.0,156.12 L30.0,156.02 L40.0,155.93 L50.0,155.89 L60.0,155.90 L70.0,155.96 L80.0,156.09 L90.0,156.28 L100.0,156.53 L110.0,156.80 L120.0,157.10 L130.0,157.39 L140.0,157.66 L150.0,157.88 L160.0,158.02 L170.0,158.07 L180.0,157.99 L190.0,157.79 L200.0,157.44 L210.0,156.96 L220.0,156.33 L230.0,155.57 L240.0,154.69 L250.0,153.72 L260.0,152.69 L270.0,151.63 L280.0,150.57 L290.0,149.54 L300.0,148.59 L310.0,147.73 L320.0,147.02 L330.0,146.46 L340.0,146.08 L350.0,145.89 L360.0,145.90 L370.0,146.10 L380.0,146.49 L390.0,147.04 L400.0,147.75 L410.0,148.57 L420.0,149.48 L430.0,150.45 L440.0,151.43 L450.0,152.41 L460.0,153.34 L470.0,154.20 L480.0,154.97 L490.0,155.62 L500.0,156.16 L510.0,156.56 L520.0,156.84 L530.0,157.00 L540.0,157.05 L550.0,157.01 L560.0,156.91 L570.0,156.76 L580.0,156.58 L590.0,156.41 L600.0,156.26 L610.0,156.14 L620.0,156.08 L630.0,156.07 L640.0,156.13 L650.0,156.24 L660.0,156.41 L670.0,156.61 L680.0,156.83 L690.0,157.04 L700.0,157.23 L710.0,157.38 L720.0,157.45 L730.0,157.42 L740.0,157.28 L750.0,157.02 L760.0,156.63 L770.0,156.10 L780.0,155.45 L790.0,154.67 L800.0,153.80 L810.0,152.84 L820.0,151.84 L830.0,150.82 L840.0,149.82 L850.0,148.86 L860.0,147.99 L870.0,147.23 L880.0,146.62 L890.0,146.18 L900.0,145.92 L910.0,145.85 L920.0,145.98 L930.0,146.30 L940.0,146.81 L950.0,147.47 L960.0,148.27 L970.0,149.19 L980.0,150.18 L990.0,151.21 L1000.0,152.25 L1010.0,153.26 L1020.0,154.21 L1030.0,155.08 L1040.0,155.84 L1050.0,156.48 L1060.0,156.98 L1070.0,157.35 L1080.0,157.58 L1090.0,157.68 L1100.0,157.67 L1110.0,157.57 L1120.0,157.40 L1130.0,157.17 L1140.0,156.93 L1150.0,156.68 L1160.0,156.45 L1170.0,156.26 L1180.0,156.12 L1190.0,156.04 L1200.0,156.03" stroke="#0EA874" stroke-opacity="0.55" stroke-width="0.41" stroke-linecap="round" fill="none"/>
    <path d="M0.0,168.22 L10.0,167.91 L20.0,167.59 L30.0,167.29 L40.0,167.03 L50.0,166.83 L60.0,166.69 L70.0,166.61 L80.0,166.60 L90.0,166.65 L100.0,166.74 L110.0,166.85 L120.0,166.97 L130.0,167.06 L140.0,167.11 L150.0,167.09 L160.0,166.98 L170.0,166.77 L180.0,166.43 L190.0,165.98 L200.0,165.39 L210.0,164.69 L220.0,163.88 L230.0,162.99 L240.0,162.03 L250.0,161.05 L260.0,160.06 L270.0,159.12 L280.0,158.24 L290.0,157.47 L300.0,156.84 L310.0,156.38 L320.0,156.10 L330.0,156.02 L340.0,156.15 L350.0,156.48 L360.0,157.01 L370.0,157.73 L380.0,158.60 L390.0,159.60 L400.0,160.70 L410.0,161.86 L420.0,163.04 L430.0,164.21 L440.0,165.32 L450.0,166.35 L460.0,167.26 L470.0,168.04 L480.0,168.66 L490.0,169.12 L500.0,169.42 L510.0,169.55 L520.0,169.55 L530.0,169.41 L540.0,169.16 L550.0,168.84 L560.0,168.46 L570.0,168.05 L580.0,167.65 L590.0,167.26 L600.0,166.92 L610.0,166.64 L620.0,166.42 L630.0,166.27 L640.0,166.19 L650.0,166.17 L660.0,166.20 L670.0,166.25 L680.0,166.31 L690.0,166.35 L700.0,166.36 L710.0,166.30 L720.0,166.16 L730.0,165.92 L740.0,165.57 L750.0,165.10 L760.0,164.52 L770.0,163.84 L780.0,163.06 L790.0,162.21 L800.0,161.31 L810.0,160.39 L820.0,159.49 L830.0,158.63 L840.0,157.86 L850.0,157.21 L860.0,156.69 L870.0,156.35 L880.0,156.20 L890.0,156.25 L900.0,156.50 L910.0,156.96 L920.0,157.60 L930.0,158.42 L940.0,159.38 L950.0,160.46 L960.0,161.62 L970.0,162.83 L980.0,164.03 L990.0,165.21 L1000.0,166.32 L1010.0,167.32 L1020.0,168.20 L1030.0,168.92 L1040.0,169.48 L1050.0,169.86 L1060.0,170.08 L1070.0,170.13 L1080.0,170.02 L1090.0,169.79 L1100.0,169.45 L1110.0,169.03 L1120.0,168.55 L1130.0,168.05 L1140.0,167.56 L1150.0,167.09 L1160.0,166.66 L1170.0,166.30 L1180.0,166.02 L1190.0,165.80 L1200.0,165.66" stroke="#0EA874" stroke-opacity="0.55" stroke-width="0.42" stroke-linecap="round" fill="none"/>
    <path d="M0.0,186.03 L10.0,185.42 L20.0,184.84 L30.0,184.31 L40.0,183.86 L50.0,183.49 L60.0,183.20 L70.0,183.01 L80.0,182.88 L90.0,182.82 L100.0,182.80 L110.0,182.80 L120.0,182.79 L130.0,182.76 L140.0,182.66 L150.0,182.49 L160.0,182.23 L170.0,181.86 L180.0,181.38 L190.0,180.79 L200.0,180.11 L210.0,179.34 L220.0,178.51 L230.0,177.64 L240.0,176.78 L250.0,175.94 L260.0,175.18 L270.0,174.52 L280.0,173.99 L290.0,173.64 L300.0,173.47 L310.0,173.51 L320.0,173.77 L330.0,174.24 L340.0,174.92 L350.0,175.80 L360.0,176.85 L370.0,178.03 L380.0,179.32 L390.0,180.67 L400.0,182.04 L410.0,183.39 L420.0,184.67 L430.0,185.85 L440.0,186.88 L450.0,187.75 L460.0,188.43 L470.0,188.91 L480.0,189.18 L490.0,189.25 L500.0,189.13 L510.0,188.84 L520.0,188.39 L530.0,187.83 L540.0,187.18 L550.0,186.48 L560.0,185.76 L570.0,185.05 L580.0,184.39 L590.0,183.78 L600.0,183.26 L610.0,182.83 L620.0,182.49 L630.0,182.25 L640.0,182.09 L650.0,181.99 L660.0,181.95 L670.0,181.93 L680.0,181.91 L690.0,181.87 L700.0,181.77 L710.0,181.61 L720.0,181.37 L730.0,181.03 L740.0,180.59 L750.0,180.05 L760.0,179.43 L770.0,178.73 L780.0,177.98 L790.0,177.20 L800.0,176.44 L810.0,175.72 L820.0,175.07 L830.0,174.53 L840.0,174.14 L850.0,173.91 L860.0,173.88 L870.0,174.04 L880.0,174.42 L890.0,175.01 L900.0,175.79 L910.0,176.75 L920.0,177.87 L930.0,179.12 L940.0,180.44 L950.0,181.81 L960.0,183.18 L970.0,184.50 L980.0,185.74 L990.0,186.86 L1000.0,187.82 L1010.0,188.60 L1020.0,189.18 L1030.0,189.54 L1040.0,189.70 L1050.0,189.64 L1060.0,189.39 L1070.0,188.97 L1080.0,188.40 L1090.0,187.72 L1100.0,186.96 L1110.0,186.15 L1120.0,185.33 L1130.0,184.54 L1140.0,183.79 L1150.0,183.12 L1160.0,182.54 L1170.0,182.06 L1180.0,181.68 L1190.0,181.41 L1200.0,181.22" stroke="#0EA874" stroke-opacity="0.55" stroke-width="0.45" stroke-linecap="round" fill="none"/>
    <path d="M0.0,209.17 L10.0,208.27 L20.0,207.45 L30.0,206.75 L40.0,206.17 L50.0,205.72 L60.0,205.38 L70.0,205.16 L80.0,205.04 L90.0,204.98 L100.0,204.97 L110.0,204.97 L120.0,204.96 L130.0,204.91 L140.0,204.79 L150.0,204.60 L160.0,204.31 L170.0,203.93 L180.0,203.45 L190.0,202.88 L200.0,202.25 L210.0,201.57 L220.0,200.88 L230.0,200.21 L240.0,199.59 L250.0,199.07 L260.0,198.68 L270.0,198.45 L280.0,198.40 L290.0,198.56 L300.0,198.94 L310.0,199.55 L320.0,200.37 L330.0,201.39 L340.0,202.60 L350.0,203.94 L360.0,205.40 L370.0,206.92 L380.0,208.45 L390.0,209.95 L400.0,211.37 L410.0,212.67 L420.0,213.79 L430.0,214.72 L440.0,215.41 L450.0,215.86 L460.0,216.06 L470.0,216.00 L480.0,215.70 L490.0,215.19 L500.0,214.48 L510.0,213.61 L520.0,212.63 L530.0,211.56 L540.0,210.47 L550.0,209.38 L560.0,208.33 L570.0,207.36 L580.0,206.50 L590.0,205.76 L600.0,205.15 L610.0,204.68 L620.0,204.35 L630.0,204.13 L640.0,204.02 L650.0,203.99 L660.0,204.01 L670.0,204.05 L680.0,204.09 L690.0,204.10 L700.0,204.04 L710.0,203.92 L720.0,203.71 L730.0,203.40 L740.0,203.01 L750.0,202.54 L760.0,202.01 L770.0,201.44 L780.0,200.87 L790.0,200.32 L800.0,199.83 L810.0,199.44 L820.0,199.17 L830.0,199.06 L840.0,199.14 L850.0,199.41 L860.0,199.90 L870.0,200.60 L880.0,201.50 L890.0,202.59 L900.0,203.84 L910.0,205.21 L920.0,206.67 L930.0,208.17 L940.0,209.66 L950.0,211.10 L960.0,212.44 L970.0,213.63 L980.0,214.64 L990.0,215.43 L1000.0,215.99 L1010.0,216.28 L1020.0,216.32 L1030.0,216.11 L1040.0,215.65 L1050.0,214.98 L1060.0,214.13 L1070.0,213.13 L1080.0,212.02 L1090.0,210.84 L1100.0,209.65 L1110.0,208.48 L1120.0,207.37 L1130.0,206.35 L1140.0,205.45 L1150.0,204.69 L1160.0,204.08 L1170.0,203.62 L1180.0,203.30 L1190.0,203.11 L1200.0,203.04" stroke="#0EA874" stroke-opacity="0.55" stroke-width="0.49" stroke-linecap="round" fill="none"/>
    <path d="M0.0,237.31 L10.0,236.25 L20.0,235.36 L30.0,234.65 L40.0,234.13 L50.0,233.78 L60.0,233.59 L70.0,233.53 L80.0,233.59 L90.0,233.72 L100.0,233.89 L110.0,234.07 L120.0,234.22 L130.0,234.31 L140.0,234.33 L150.0,234.26 L160.0,234.10 L170.0,233.84 L180.0,233.50 L190.0,233.09 L200.0,232.65 L210.0,232.20 L220.0,231.78 L230.0,231.42 L240.0,231.18 L250.0,231.07 L260.0,231.14 L270.0,231.40 L280.0,231.88 L290.0,232.58 L300.0,233.49 L310.0,234.61 L320.0,235.92 L330.0,237.37 L340.0,238.94 L350.0,240.57 L360.0,242.21 L370.0,243.80 L380.0,245.31 L390.0,246.66 L400.0,247.82 L410.0,248.74 L420.0,249.39 L430.0,249.75 L440.0,249.81 L450.0,249.57 L460.0,249.04 L470.0,248.24 L480.0,247.20 L490.0,245.97 L500.0,244.59 L510.0,243.11 L520.0,241.58 L530.0,240.06 L540.0,238.59 L550.0,237.23 L560.0,236.00 L570.0,234.94 L580.0,234.06 L590.0,233.39 L600.0,232.91 L610.0,232.62 L620.0,232.50 L630.0,232.53 L640.0,232.67 L650.0,232.90 L660.0,233.17 L670.0,233.45 L680.0,233.70 L690.0,233.91 L700.0,234.04 L710.0,234.08 L720.0,234.03 L730.0,233.88 L740.0,233.66 L750.0,233.37 L760.0,233.05 L770.0,232.72 L780.0,232.42 L790.0,232.18 L800.0,232.05 L810.0,232.05 L820.0,232.21 L830.0,232.57 L840.0,233.12 L850.0,233.88 L860.0,234.84 L870.0,235.99 L880.0,237.30 L890.0,238.73 L900.0,240.26 L910.0,241.83 L920.0,243.38 L930.0,244.88 L940.0,246.25 L950.0,247.46 L960.0,248.46 L970.0,249.21 L980.0,249.68 L990.0,249.85 L1000.0,249.72 L1010.0,249.29 L1020.0,248.58 L1030.0,247.61 L1040.0,246.41 L1050.0,245.04 L1060.0,243.53 L1070.0,241.95 L1080.0,240.34 L1090.0,238.76 L1100.0,237.25 L1110.0,235.87 L1120.0,234.65 L1130.0,233.61 L1140.0,232.78 L1150.0,232.16 L1160.0,231.75 L1170.0,231.55 L1180.0,231.52 L1190.0,231.65 L1200.0,231.90" stroke="#0EA874" stroke-opacity="0.9" stroke-width="0.54" stroke-linecap="round" fill="none"/>
    <path d="M0.0,270.72 L10.0,269.78 L20.0,269.10 L30.0,268.68 L40.0,268.50 L50.0,268.54 L60.0,268.76 L70.0,269.14 L80.0,269.61 L90.0,270.14 L100.0,270.69 L110.0,271.22 L120.0,271.69 L130.0,272.07 L140.0,272.34 L150.0,272.51 L160.0,272.56 L170.0,272.52 L180.0,272.40 L190.0,272.22 L200.0,272.03 L210.0,271.87 L220.0,271.77 L230.0,271.77 L240.0,271.91 L250.0,272.22 L260.0,272.73 L270.0,273.44 L280.0,274.36 L290.0,275.48 L300.0,276.79 L310.0,278.25 L320.0,279.82 L330.0,281.46 L340.0,283.11 L350.0,284.71 L360.0,286.20 L370.0,287.53 L380.0,288.65 L390.0,289.50 L400.0,290.04 L410.0,290.26 L420.0,290.12 L430.0,289.64 L440.0,288.83 L450.0,287.70 L460.0,286.29 L470.0,284.66 L480.0,282.84 L490.0,280.91 L500.0,278.93 L510.0,276.95 L520.0,275.06 L530.0,273.29 L540.0,271.70 L550.0,270.34 L560.0,269.23 L570.0,268.39 L580.0,267.82 L590.0,267.52 L600.0,267.48 L610.0,267.66 L620.0,268.04 L630.0,268.56 L640.0,269.19 L650.0,269.88 L660.0,270.57 L670.0,271.24 L680.0,271.85 L690.0,272.37 L700.0,272.77 L710.0,273.06 L720.0,273.23 L730.0,273.30 L740.0,273.28 L750.0,273.21 L760.0,273.12 L770.0,273.04 L780.0,273.02 L790.0,273.09 L800.0,273.28 L810.0,273.64 L820.0,274.17 L830.0,274.90 L840.0,275.82 L850.0,276.92 L860.0,278.18 L870.0,279.57 L880.0,281.06 L890.0,282.58 L900.0,284.10 L910.0,285.55 L920.0,286.88 L930.0,288.02 L940.0,288.94 L950.0,289.58 L960.0,289.91 L970.0,289.91 L980.0,289.57 L990.0,288.88 L1000.0,287.88 L1010.0,286.57 L1020.0,285.01 L1030.0,283.24 L1040.0,281.32 L1050.0,279.30 L1060.0,277.27 L1070.0,275.27 L1080.0,273.38 L1090.0,271.65 L1100.0,270.12 L1110.0,268.84 L1120.0,267.83 L1130.0,267.11 L1140.0,266.68 L1150.0,266.53 L1160.0,266.65 L1170.0,266.99 L1180.0,267.53 L1190.0,268.22 L1200.0,269.01" stroke="#0EA874" stroke-opacity="0.55" stroke-width="0.61" stroke-linecap="round" fill="none"/>
    <path d="M0.0,310.47 L10.0,310.07 L20.0,310.00 L30.0,310.24 L40.0,310.75 L50.0,311.50 L60.0,312.42 L70.0,313.45 L80.0,314.55 L90.0,315.66 L100.0,316.71 L110.0,317.69 L120.0,318.53 L130.0,319.24 L140.0,319.79 L150.0,320.19 L160.0,320.45 L170.0,320.59 L180.0,320.64 L190.0,320.65 L200.0,320.66 L210.0,320.71 L220.0,320.85 L230.0,321.11 L240.0,321.53 L250.0,322.12 L260.0,322.91 L270.0,323.89 L280.0,325.04 L290.0,326.36 L300.0,327.79 L310.0,329.29 L320.0,330.81 L330.0,332.29 L340.0,333.67 L350.0,334.88 L360.0,335.86 L370.0,336.56 L380.0,336.94 L390.0,336.95 L400.0,336.59 L410.0,335.85 L420.0,334.73 L430.0,333.26 L440.0,331.48 L450.0,329.44 L460.0,327.20 L470.0,324.83 L480.0,322.41 L490.0,320.02 L500.0,317.72 L510.0,315.59 L520.0,313.69 L530.0,312.08 L540.0,310.79 L550.0,309.86 L560.0,309.29 L570.0,309.08 L580.0,309.22 L590.0,309.68 L600.0,310.41 L610.0,311.36 L620.0,312.48 L630.0,313.72 L640.0,315.00 L650.0,316.27 L660.0,317.49 L670.0,318.60 L680.0,319.57 L690.0,320.39 L700.0,321.04 L710.0,321.52 L720.0,321.85 L730.0,322.05 L740.0,322.15 L750.0,322.19 L760.0,322.22 L770.0,322.28 L780.0,322.42 L790.0,322.66 L800.0,323.04 L810.0,323.59 L820.0,324.31 L830.0,325.20 L840.0,326.26 L850.0,327.45 L860.0,328.75 L870.0,330.09 L880.0,331.44 L890.0,332.73 L900.0,333.90 L910.0,334.89 L920.0,335.65 L930.0,336.12 L940.0,336.26 L950.0,336.06 L960.0,335.48 L970.0,334.53 L980.0,333.23 L990.0,331.60 L1000.0,329.69 L1010.0,327.55 L1020.0,325.24 L1030.0,322.83 L1040.0,320.41 L1050.0,318.04 L1060.0,315.81 L1070.0,313.78 L1080.0,312.01 L1090.0,310.55 L1100.0,309.44 L1110.0,308.70 L1120.0,308.34 L1130.0,308.36 L1140.0,308.72 L1150.0,309.40 L1160.0,310.35 L1170.0,311.52 L1180.0,312.85 L1190.0,314.27 L1200.0,315.73" stroke="#0EA874" stroke-opacity="0.55" stroke-width="0.68" stroke-linecap="round" fill="none"/>
    <path d="M0.0,358.46 L10.0,359.03 L20.0,359.97 L30.0,361.23 L40.0,362.73 L50.0,364.42 L60.0,366.20 L70.0,368.02 L80.0,369.80 L90.0,371.48 L100.0,373.01 L110.0,374.35 L120.0,375.47 L130.0,376.36 L140.0,377.02 L150.0,377.48 L160.0,377.75 L170.0,377.89 L180.0,377.92 L190.0,377.92 L200.0,377.92 L210.0,377.98 L220.0,378.14 L230.0,378.44 L240.0,378.90 L250.0,379.54 L260.0,380.35 L270.0,381.32 L280.0,382.43 L290.0,383.62 L300.0,384.86 L310.0,386.07 L320.0,387.20 L330.0,388.18 L340.0,388.95 L350.0,389.44 L360.0,389.61 L370.0,389.41 L380.0,388.81 L390.0,387.82 L400.0,386.43 L410.0,384.66 L420.0,382.56 L430.0,380.18 L440.0,377.59 L450.0,374.87 L460.0,372.09 L470.0,369.35 L480.0,366.74 L490.0,364.34 L500.0,362.22 L510.0,360.46 L520.0,359.10 L530.0,358.18 L540.0,357.71 L550.0,357.71 L560.0,358.15 L570.0,359.00 L580.0,360.21 L590.0,361.72 L600.0,363.47 L610.0,365.38 L620.0,367.37 L630.0,369.36 L640.0,371.30 L650.0,373.10 L660.0,374.73 L670.0,376.15 L680.0,377.32 L690.0,378.23 L700.0,378.91 L710.0,379.35 L720.0,379.60 L730.0,379.68 L740.0,379.66 L750.0,379.59 L760.0,379.50 L770.0,379.47 L780.0,379.52 L790.0,379.69 L800.0,380.02 L810.0,380.51 L820.0,381.17 L830.0,381.97 L840.0,382.89 L850.0,383.88 L860.0,384.91 L870.0,385.91 L880.0,386.82 L890.0,387.57 L900.0,388.11 L910.0,388.37 L920.0,388.31 L930.0,387.90 L940.0,387.12 L950.0,385.95 L960.0,384.41 L970.0,382.52 L980.0,380.34 L990.0,377.91 L1000.0,375.30 L1010.0,372.60 L1020.0,369.89 L1030.0,367.25 L1040.0,364.78 L1050.0,362.55 L1060.0,360.64 L1070.0,359.11 L1080.0,358.01 L1090.0,357.36 L1100.0,357.18 L1110.0,357.46 L1120.0,358.19 L1130.0,359.31 L1140.0,360.79 L1150.0,362.56 L1160.0,364.54 L1170.0,366.65 L1180.0,368.82 L1190.0,370.97 L1200.0,373.03" stroke="#0EA874" stroke-opacity="0.55" stroke-width="0.77" stroke-linecap="round" fill="none"/>
    <path d="M0.0,416.96 L10.0,418.84 L20.0,421.05 L30.0,423.49 L40.0,426.07 L50.0,428.70 L60.0,431.30 L70.0,433.77 L80.0,436.04 L90.0,438.05 L100.0,439.76 L110.0,441.14 L120.0,442.19 L130.0,442.91 L140.0,443.32 L150.0,443.48 L160.0,443.42 L170.0,443.20 L180.0,442.89 L190.0,442.55 L200.0,442.25 L210.0,442.03 L220.0,441.93 L230.0,442.00 L240.0,442.23 L250.0,442.64 L260.0,443.21 L270.0,443.91 L280.0,444.68 L290.0,445.49 L300.0,446.26 L310.0,446.93 L320.0,447.42 L330.0,447.67 L340.0,447.63 L350.0,447.24 L360.0,446.47 L370.0,445.31 L380.0,443.74 L390.0,441.80 L400.0,439.51 L410.0,436.93 L420.0,434.13 L430.0,431.19 L440.0,428.21 L450.0,425.28 L460.0,422.51 L470.0,419.97 L480.0,417.78 L490.0,415.99 L500.0,414.69 L510.0,413.90 L520.0,413.66 L530.0,413.97 L540.0,414.82 L550.0,416.17 L560.0,417.96 L570.0,420.14 L580.0,422.60 L590.0,425.27 L600.0,428.05 L610.0,430.85 L620.0,433.56 L630.0,436.11 L640.0,438.43 L650.0,440.45 L660.0,442.13 L670.0,443.46 L680.0,444.42 L690.0,445.04 L700.0,445.32 L710.0,445.33 L720.0,445.11 L730.0,444.72 L740.0,444.24 L750.0,443.71 L760.0,443.21 L770.0,442.80 L780.0,442.50 L790.0,442.36 L800.0,442.39 L810.0,442.59 L820.0,442.95 L830.0,443.43 L840.0,443.99 L850.0,444.58 L860.0,445.13 L870.0,445.58 L880.0,445.87 L890.0,445.93 L900.0,445.71 L910.0,445.16 L920.0,444.24 L930.0,442.96 L940.0,441.31 L950.0,439.31 L960.0,437.00 L970.0,434.45 L980.0,431.71 L990.0,428.88 L1000.0,426.04 L1010.0,423.30 L1020.0,420.74 L1030.0,418.46 L1040.0,416.55 L1050.0,415.08 L1060.0,414.10 L1070.0,413.65 L1080.0,413.76 L1090.0,414.41 L1100.0,415.59 L1110.0,417.26 L1120.0,419.35 L1130.0,421.79 L1140.0,424.49 L1150.0,427.36 L1160.0,430.29 L1170.0,433.21 L1180.0,436.00 L1190.0,438.59 L1200.0,440.90" stroke="#0EA874" stroke-opacity="0.55" stroke-width="0.87" stroke-linecap="round" fill="none"/>
    <path d="M0.0,487.83 L10.0,491.08 L20.0,494.50 L30.0,497.99 L40.0,501.41 L50.0,504.68 L60.0,507.68 L70.0,510.35 L80.0,512.61 L90.0,514.42 L100.0,515.77 L110.0,516.64 L120.0,517.07 L130.0,517.09 L140.0,516.75 L150.0,516.13 L160.0,515.30 L170.0,514.33 L180.0,513.32 L190.0,512.33 L200.0,511.43 L210.0,510.68 L220.0,510.10 L230.0,509.73 L240.0,509.56 L250.0,509.58 L260.0,509.75 L270.0,510.03 L280.0,510.35 L290.0,510.66 L300.0,510.87 L310.0,510.91 L320.0,510.72 L330.0,510.24 L340.0,509.43 L350.0,508.25 L360.0,506.69 L370.0,504.76 L380.0,502.49 L390.0,499.93 L400.0,497.14 L410.0,494.22 L420.0,491.25 L430.0,488.34 L440.0,485.59 L450.0,483.11 L460.0,481.00 L470.0,479.36 L480.0,478.24 L490.0,477.71 L500.0,477.80 L510.0,478.51 L520.0,479.85 L530.0,481.76 L540.0,484.19 L550.0,487.07 L560.0,490.28 L570.0,493.74 L580.0,497.32 L590.0,500.91 L600.0,504.39 L610.0,507.66 L620.0,510.62 L630.0,513.20 L640.0,515.33 L650.0,516.98 L660.0,518.13 L670.0,518.78 L680.0,518.96 L690.0,518.72 L700.0,518.11 L710.0,517.21 L720.0,516.10 L730.0,514.86 L740.0,513.58 L750.0,512.33 L760.0,511.17 L770.0,510.17 L780.0,509.36 L790.0,508.76 L800.0,508.38 L810.0,508.19 L820.0,508.17 L830.0,508.27 L840.0,508.42 L850.0,508.57 L860.0,508.64 L870.0,508.56 L880.0,508.26 L890.0,507.70 L900.0,506.83 L910.0,505.61 L920.0,504.05 L930.0,502.16 L940.0,499.96 L950.0,497.52 L960.0,494.88 L970.0,492.15 L980.0,489.41 L990.0,486.76 L1000.0,484.31 L1010.0,482.17 L1020.0,480.41 L1030.0,479.14 L1040.0,478.40 L1050.0,478.26 L1060.0,478.73 L1070.0,479.82 L1080.0,481.51 L1090.0,483.74 L1100.0,486.46 L1110.0,489.59 L1120.0,493.01 L1130.0,496.62 L1140.0,500.31 L1150.0,503.95 L1160.0,507.43 L1170.0,510.65 L1180.0,513.52 L1190.0,515.96 L1200.0,517.91" stroke="#0EA874" stroke-opacity="0.9" stroke-width="0.98" stroke-linecap="round" fill="none"/>
    <path d="M0.0,571.68 L10.0,575.95 L20.0,580.15 L30.0,584.13 L40.0,587.78 L50.0,590.99 L60.0,593.69 L70.0,595.80 L80.0,597.30 L90.0,598.18 L100.0,598.44 L110.0,598.13 L120.0,597.32 L130.0,596.07 L140.0,594.48 L150.0,592.66 L160.0,590.70 L170.0,588.70 L180.0,586.76 L190.0,584.96 L200.0,583.37 L210.0,582.02 L220.0,580.95 L230.0,580.15 L240.0,579.61 L250.0,579.30 L260.0,579.16 L270.0,579.11 L280.0,579.10 L290.0,579.03 L300.0,578.84 L310.0,578.45 L320.0,577.79 L330.0,576.83 L340.0,575.53 L350.0,573.89 L360.0,571.93 L370.0,569.68 L380.0,567.20 L390.0,564.56 L400.0,561.87 L410.0,559.23 L420.0,556.74 L430.0,554.52 L440.0,552.68 L450.0,551.31 L460.0,550.50 L470.0,550.32 L480.0,550.80 L490.0,551.96 L500.0,553.80 L510.0,556.27 L520.0,559.31 L530.0,562.84 L540.0,566.75 L550.0,570.92 L560.0,575.22 L570.0,579.52 L580.0,583.67 L590.0,587.55 L600.0,591.04 L610.0,594.05 L620.0,596.49 L630.0,598.31 L640.0,599.48 L650.0,600.00 L660.0,599.89 L670.0,599.20 L680.0,598.00 L690.0,596.38 L700.0,594.43 L710.0,592.25 L720.0,589.96 L730.0,587.65 L740.0,585.43 L750.0,583.37 L760.0,581.54 L770.0,579.99 L780.0,578.74 L790.0,577.79 L800.0,577.13 L810.0,576.71 L820.0,576.48 L830.0,576.38 L840.0,576.32 L850.0,576.24 L860.0,576.05 L870.0,575.69 L880.0,575.09 L890.0,574.21 L900.0,573.02 L910.0,571.52 L920.0,569.73 L930.0,567.69 L940.0,565.45 L950.0,563.09 L960.0,560.70 L970.0,558.39 L980.0,556.27 L990.0,554.43 L1000.0,552.98 L1010.0,552.02 L1020.0,551.62 L1030.0,551.84 L1040.0,552.70 L1050.0,554.23 L1060.0,556.40 L1070.0,559.16 L1080.0,562.45 L1090.0,566.18 L1100.0,570.23 L1110.0,574.48 L1120.0,578.80 L1130.0,583.05 L1140.0,587.10 L1150.0,590.81 L1160.0,594.09 L1170.0,596.83 L1180.0,598.96 L1190.0,600.44 L1200.0,601.24" stroke="#0EA874" stroke-opacity="0.55" stroke-width="1.10" stroke-linecap="round" fill="none"/>
  </g>
</svg>
